<?xml version="1.0" encoding="utf-8"?> <!-- Generator: IcoMoon.io --> <!DOCTYPE svg PUBLIC "-//W3C//DTD SVG 1.1//EN" "http://www.w3.org/Graphics/SVG/1.1/DTD/svg11.dtd"> <svg version="1.1" id="Layer_1" xmlns="http://www.w3.org/2000/svg" xmlns:xlink="http://www.w3.org/1999/xlink" x="0px" y="0px" width="32" height="32" viewBox="0 0 32 32" enable-background="new 0 0 512 512" xml:space="preserve" fill="#000000"> <g><g> </g><path d="M 30,24c-3.089,0-4-1.317-4-4.213L26,12 c0-3.844-3.746-7.264-8-8L18,2 l-4,0 l0,2 C 9.746,4.736, 6,7.85, 6,11.694l0,7.787 C 6,22.377, 5.089,24, 2,24l0,2 l12,0 c-0.153,0.312-0.636,1.131-0.636,1.497 c0,1.365, 1.18,2.472, 2.636,2.472c 1.456,0, 2.636-1.107, 2.636-2.472c0-0.365-0.49-1.185-0.636-1.497l12,0 L30,24 z M 14,18 l-0.99,3.969l-3.16,0 L 13.97,8l4,0 l 4.18,13.969l-3.28,0 L 18,18L14,18 z M 17.39,16.021l-0.84-2.964 c-0.24-0.829-0.48-1.865-0.68-2.694l-0.040,0 c-0.2,0.829-0.4,1.886-0.62,2.694l-0.8,2.964L17.39,16.021 z"></path></g></svg>