<?xml version="1.0" encoding="utf-8"?> <!-- Generator: IcoMoon.io --> <!DOCTYPE svg PUBLIC "-//W3C//DTD SVG 1.1//EN" "http://www.w3.org/Graphics/SVG/1.1/DTD/svg11.dtd"> <svg version="1.1" id="Layer_1" xmlns="http://www.w3.org/2000/svg" xmlns:xlink="http://www.w3.org/1999/xlink" x="0px" y="0px" width="48" height="48" viewBox="0 0 48 48" enable-background="new 0 0 512 512" xml:space="preserve" fill="#000000"> <g><g> </g><path d="M 45,36c-4.633,0-6-1.975-6-6.32L39,18 c0-5.766-5.619-10.896-12-12L27,3 l-6,0 l0,3 C 14.618,7.105, 9,11.775, 9,17.541l0,11.68 C 9,33.565, 7.633,36, 3,36l0,3 l18,0 c-0.23,0.468-0.954,1.697-0.954,2.245 c0,2.048, 1.771,3.708, 3.954,3.708c 2.184,0, 3.954-1.66, 3.954-3.708c0-0.548-0.735-1.777-0.954-2.245l18,0 L45,36 z"></path></g></svg>