<?xml version="1.0" encoding="utf-8"?> <!-- Generator: IcoMoon.io --> <!DOCTYPE svg PUBLIC "-//W3C//DTD SVG 1.1//EN" "http://www.w3.org/Graphics/SVG/1.1/DTD/svg11.dtd"> <svg version="1.1" id="Layer_1" xmlns="http://www.w3.org/2000/svg" xmlns:xlink="http://www.w3.org/1999/xlink" x="0px" y="0px" width="32" height="32" viewBox="0 0 32 32" enable-background="new 0 0 512 512" xml:space="preserve" fill="#000000"> <g><g> </g><path d="M 30,24c-3.089,0-4-1.317-4-4.213L26,12 c0-3.844-3.746-7.264-8-8L18,2 l-4,0 l0,2 C 9.746,4.736, 6,7.85, 6,11.694l0,7.787 C 6,22.377, 5.089,24, 2,24l0,2 l12,0 c-0.153,0.312-0.636,1.131-0.636,1.497 c0,1.365, 1.18,2.472, 2.636,2.472c 1.456,0, 2.636-1.107, 2.636-2.472c0-0.365-0.49-1.185-0.636-1.497l12,0 L30,24 z M 14.030,21.054l-4.36-5.768l 1.345-1.345l 3.015,2.171L 20.929,10l 1.401,1.401L 14.030,21.054z"></path></g></svg>