<?xml version="1.0" encoding="utf-8"?> <!-- Generator: IcoMoon.io --> <!DOCTYPE svg PUBLIC "-//W3C//DTD SVG 1.1//EN" "http://www.w3.org/Graphics/SVG/1.1/DTD/svg11.dtd"> <svg width="32.84000015258789" height="33.445003509521484" viewBox="0 0 32.84000015258789 33.445003509521484" xmlns="http://www.w3.org/2000/svg" xmlns:xlink="http://www.w3.org/1999/xlink" fill="#000000"><g><path d="M 12.951,27.977c-0.025,0.025-0.051,0.051-0.075,0.076 c-2.508,2.399-6.497,2.446-8.916,0.096c-2.566-2.415-2.617-5.913, 0.044-8.604c 0.021-0.021, 0.038-0.043, 0.059-0.064 c 0.025-0.023, 0.049-0.048, 0.073-0.071l 16.52-16.054l0,0.007 l 0.004-0.013l 0.131-0.128c 1.526-1.452, 3.946-1.478, 5.414-0.051 c 0.883,1.258, 1.439,3.789-0.049,5.261l-0.137,0.134l-1.563,1.517l-1.434,1.395L 10.923,23.233l-0.006-0.006l-1.396,1.356 l-0.038-0.047l-0.035,0.039l-0.069,0.076c-0.006,0.004-0.013,0.008-0.018,0.014c-0.558,0.504-1.419,0.508-1.946-0.004 c-0.522-0.508-0.521-1.252-0.001-1.806c 0.017-0.016, 0.027-0.035, 0.044-0.051l 1.514-1.472l 11.085-10.771L 18.54,9.090L 7.455,19.863 l-1.346,1.469l0,0.002 c-0.004,0.004-0.008,0.006-0.013,0.012c-0.012,0.012-0.022,0.023-0.034,0.036 c-1.383,1.381-1.574,3.388-0.21,4.715c 1.365,1.325, 3.602,1.22, 5.022-0.125l 0.002,0.002l 0.028-0.029 c 0.003-0.002, 0.006-0.004, 0.008-0.006c 0.003-0.002, 0.005-0.006, 0.007-0.008l 15.052-14.376l 1.561-1.519l 0.139-0.133l-0.002-0.002 c 2.356-2.323, 1.237-6.674, 0.098-8.248c-2.318-2.252-6.134-2.197-8.523,0.126c-0.035,0.033-0.064,0.070-0.098,0.105l-0.004-0.003 L 2.62,17.937l 0.002,0.002c-0.013,0.014-0.027,0.023-0.041,0.037c-0.023,0.021-0.044,0.049-0.067,0.072l-0.024,0.023l 0.001,0.002 c-3.277,3.282-3.331,8.443-0.092,11.594c 3.271,3.179, 8.658,3.099, 12.030-0.178c 0.014-0.014, 0.024-0.027, 0.038-0.041l 0.004,0.004 L 32,12.417l-1.516-1.473L 12.951,27.977z"></path></g></svg>