<?xml version="1.0" encoding="utf-8"?> <!-- Generator: IcoMoon.io --> <!DOCTYPE svg PUBLIC "-//W3C//DTD SVG 1.1//EN" "http://www.w3.org/Graphics/SVG/1.1/DTD/svg11.dtd"> <svg width="36.94499969482422" height="37.62562942504883" viewBox="0 0 36.94499969482422 37.62562942504883" xmlns="http://www.w3.org/2000/svg" xmlns:xlink="http://www.w3.org/1999/xlink" fill="#000000"><g><path d="M 14.57,31.474c-0.028,0.028-0.057,0.057-0.084,0.085 c-2.821,2.699-7.309,2.752-10.030,0.108c-2.887-2.717-2.944-6.652, 0.049-9.679c 0.024-0.024, 0.043-0.048, 0.066-0.072 c 0.028-0.026, 0.055-0.054, 0.082-0.080l 18.585-18.061l0,0.008 l 0.005-0.015l 0.147-0.144c 1.717-1.633, 4.439-1.663, 6.091-0.057 c 0.993,1.415, 1.619,4.263-0.055,5.919l-0.154,0.151l-1.758,1.707l-1.613,1.569L 12.288,26.137l-0.007-0.007l-1.571,1.526 l-0.043-0.053l-0.039,0.044l-0.078,0.085c-0.007,0.005-0.015,0.009-0.020,0.016c-0.628,0.567-1.596,0.572-2.189-0.005 c-0.587-0.572-0.586-1.409-0.001-2.032c 0.019-0.018, 0.030-0.039, 0.049-0.057l 1.703-1.656l 12.471-12.117L 20.857,10.226L 8.387,22.346 l-1.514,1.653l0,0.002 c-0.005,0.005-0.009,0.007-0.015,0.013c-0.013,0.013-0.025,0.026-0.038,0.040 c-1.556,1.554-1.771,3.811-0.236,5.304c 1.536,1.491, 4.052,1.373, 5.65-0.141l 0.002,0.002l 0.032-0.033 c 0.003-0.002, 0.007-0.005, 0.009-0.007c 0.003-0.002, 0.006-0.007, 0.008-0.009l 16.933-16.173l 1.756-1.709l 0.156-0.15l-0.002-0.002 c 2.651-2.613, 1.392-7.508, 0.11-9.279c-2.608-2.533-6.901-2.472-9.588,0.142c-0.039,0.037-0.072,0.079-0.11,0.118l-0.005-0.003 L 2.948,20.179l 0.002,0.002c-0.015,0.016-0.030,0.026-0.046,0.042c-0.026,0.024-0.049,0.055-0.075,0.081l-0.027,0.026l 0.001,0.002 c-3.687,3.692-3.747,9.498-0.103,13.043c 3.68,3.576, 9.74,3.486, 13.534-0.2c 0.016-0.016, 0.027-0.030, 0.043-0.046l 0.005,0.005 L 36,13.969l-1.706-1.657L 14.57,31.474z"></path></g></svg>