<?xml version="1.0" encoding="utf-8"?> <!-- Generator: IcoMoon.io --> <!DOCTYPE svg PUBLIC "-//W3C//DTD SVG 1.1//EN" "http://www.w3.org/Graphics/SVG/1.1/DTD/svg11.dtd"> <svg width="32.145748138427734" height="32" viewBox="0 0 32.145748138427734 32" xmlns="http://www.w3.org/2000/svg" xmlns:xlink="http://www.w3.org/1999/xlink" fill="#000000"><g><path d="M 31.562,25.905L 22.139,16.482c-0.583-0.583-1.538-0.583-2.121,0l-0.707,0.707l-5.75-5.75L 23,2L 13,2 l-4.439,4.439 L 8.121,6L 6,6 l0,2.121 l 0.439,0.439L0,15l 5,5l 6.439-6.439l 5.75,5.75l-0.707,0.707c-0.583,0.583-0.583,1.538,0,2.121 l 9.423,9.423c 0.583,0.583, 1.538,0.583, 2.121,0l 3.535-3.535C 32.146,27.444, 32.146,26.489, 31.562,25.905z"></path></g></svg>