<?xml version="1.0" encoding="utf-8"?> <!-- Generator: IcoMoon.io --> <!DOCTYPE svg PUBLIC "-//W3C//DTD SVG 1.1//EN" "http://www.w3.org/Graphics/SVG/1.1/DTD/svg11.dtd"> <svg width="32" height="32" viewBox="0 0 32 32" xmlns="http://www.w3.org/2000/svg" xmlns:xlink="http://www.w3.org/1999/xlink" fill="#000000"><g><path d="M 29,4L 3,4 C 1.35,4,0,5.35,0,7l0,18 c0,1.65, 1.35,3, 3,3l 26,0 c 1.65,0, 3-1.35, 3-3L 32,7 C 32,5.35, 30.65,4, 29,4z M 6,24 L 4,24 l0-4 l 2,0 L 6,24 z M 10,24l-2,0 l0-4 l 2,0 L 10,24 z M 14,24l-2,0 l0-4 l 2,0 L 14,24 z M 31,16L 1,16 l0-6 l 30,0 L 31,16 z"></path></g></svg>