<?xml version="1.0" encoding="utf-8"?> <!-- Generator: IcoMoon.io --> <!DOCTYPE svg PUBLIC "-//W3C//DTD SVG 1.1//EN" "http://www.w3.org/Graphics/SVG/1.1/DTD/svg11.dtd"> <svg width="32" height="32" viewBox="0 0 32 32" xmlns="http://www.w3.org/2000/svg" xmlns:xlink="http://www.w3.org/1999/xlink" fill="#000000"><g><path d="M 12.048,16.961c-0.178,0.257-0.395,0.901-0.652,1.059c-0.257,0.157-0.547,0.267-0.869,0.328 c-0.323,0.062-0.657,0.089-1.002,0.079l0,1.527 l 2.467,0 L 11.992,26 l 1.991,0 l0-9.996 l-1.584,0 C 12.343,16.385, 12.226,16.704, 12.048,16.961z M 23,8l 2,0 c 0.553,0, 1-0.448, 1-1L 26,1 c0-0.552-0.447-1-1-1l-2,0 c-0.553,0-1,0.448-1,1l0,6 C 22,7.552, 22.447,8, 23,8z M 7,8l 2,0 c 0.552,0, 1-0.448, 1-1L 10,1 c0-0.552-0.448-1-1-1L 7,0 C 6.448,0, 6,0.448, 6,1l0,6 C 6,7.552, 6.448,8, 7,8z M 30,4l-2,0 l0,5 c0,0.552-0.447,1-1,1l-6,0 c-0.553,0-1-0.448-1-1L 20,4 l-8,0 l0,5 c0,0.552-0.448,1-1,1L 5,10 c-0.552,0-1-0.448-1-1L 4,4 L 2,4 C 0.896,4,0,4.896,0,6l0,24 c0,1.104, 0.896,2, 2,2l 28,0 c 1.104,0, 2-0.896, 2-2L 32,6 C 32,4.896, 31.104,4, 30,4z M 30,29c0,0.553-0.447,1-1,1L 3,30 c-0.552,0-1-0.447-1-1L 2,13 c0-0.552, 0.448-1, 1-1l 26,0 c 0.553,0, 1,0.448, 1,1L 30,29 z M 15.985,17.982l 4.968,0 c-0.936,1.152-1.689,2.325-2.265,3.705c-0.575,1.381-0.638,2.818-0.749,4.312l 2.131,0 c 0.009-0.666-0.195-1.385-0.051-2.156c 0.146-0.771, 0.352-1.532, 0.617-2.285c 0.267-0.752, 0.598-1.461, 0.996-2.127 c 0.396-0.667, 0.853-1.229, 1.367-1.686l0-1.742 l-7.015,0 L 15.984,17.982 z"></path></g></svg>