<?xml version="1.0" encoding="utf-8"?> <!-- Generator: IcoMoon.io --> <!DOCTYPE svg PUBLIC "-//W3C//DTD SVG 1.1//EN" "http://www.w3.org/Graphics/SVG/1.1/DTD/svg11.dtd"> <svg width="32" height="32" viewBox="0 0 32 32" xmlns="http://www.w3.org/2000/svg" xmlns:xlink="http://www.w3.org/1999/xlink" fill="#000000"><g><path d="M 31,30L 24,30L 24,29L 23,29L 23,30L 13,30L 13,29L 12,29L 12,30L 5,30L 5,29L 4,29L 4,30L 2,30L 2,21L 3,21L 3,20L 2,20L 2,13L 3,13L 3,12L 2,12L 2,5L 3,5L 3,4L 2,4L 2,0L0,0L0,32L 32,32L 32,29L 31,29 zM 13.75,12.25L 13.25,12.75L 13.25,20.629L 13.75,20.129 zM 12.75,13.25L 12.25,13.75L 12.25,21.629L 12.75,21.129 zM 11.75,22.129L 11.75,13.875L 11.25,13.625L 11.25,21.948L 11.704,22.175 zM 16.75,9.25L 16.25,9.75L 16.25,17.629L 16.75,17.129 zM 14.75,11.25L 14.25,11.75L 14.25,19.629L 14.75,19.129 zM 10.75,13.375L 10.25,13.125L 10.25,21.448L 10.75,21.698 zM 15.75,10.25L 15.25,10.75L 15.25,18.629L 15.75,18.129 zM 7.75,11.875L 7.25,11.625L 7.25,19.948L 7.75,20.198 zM 5.75,10.875L 5.25,10.625L 5.25,18.948L 5.75,19.198 zM 9.75,12.875L 9.25,12.625L 9.25,20.948L 9.75,21.198 zM 6.75,11.375L 6.25,11.125L 6.25,19.448L 6.75,19.698 zM 4.75,10.375L 4.25,10.125L 4.25,18.448L 4.75,18.698 zM 17.75,8.25L 17.25,8.75L 17.25,16.629L 17.75,16.129 zM 8.75,12.375L 8.25,12.125L 8.25,20.448L 8.75,20.698 zM 25.75,10.25L 25.25,10.75L 25.25,21.421L 25.75,20.671 zM 26.75,9.25L 26.25,9.75L 26.25,19.921L 26.75,19.171 zM 27.75,8.25L 27.25,8.75L 27.25,18.421L 27.75,17.671 zM 29.75,6.25L 29.25,6.75L 29.25,15.421L 29.75,14.671 zM 28.75,7.25L 28.25,7.75L 28.25,16.921L 28.75,16.171 zM 31.75,4.25L 31.25,4.75L 31.25,12.421L 31.75,11.671 zM 30.75,5.25L 30.25,5.75L 30.25,13.921L 30.75,13.171 zM 21.75,10.5L 21.25,10.167L 21.25,19.833L 21.75,20.5 zM 20.75,9.833L 20.25,9.5L 20.25,18.5L 20.75,19.167 zM 18.75,8.5L 18.25,8.167L 18.25,15.833L 18.75,16.5 zM 19.75,9.167L 19.25,8.833L 19.25,17.167L 19.75,17.833 zM 22.75,11.167L 22.25,10.833L 22.25,21.167L 22.75,21.833 zM 24.75,11.25L 24.25,11.75L 24.25,22.921L 24.75,22.171 zM 23.75,11.833L 23.25,11.5L 23.25,22.5L 23.75,23.167 zM 24,26L 18,18L 12,24L 4,20L 4,28L 32,28L 32,14 z"></path></g></svg>