<?xml version="1.0" encoding="utf-8"?> <!-- Generator: IcoMoon.io --> <!DOCTYPE svg PUBLIC "-//W3C//DTD SVG 1.1//EN" "http://www.w3.org/Graphics/SVG/1.1/DTD/svg11.dtd"> <svg width="32" height="32.02604293823242" viewBox="0 0 32 32.02604293823242" xmlns="http://www.w3.org/2000/svg" xmlns:xlink="http://www.w3.org/1999/xlink" fill="#000000"><g><path d="M 27.969,32l-9.719,0 l 0.25-0.125q 0.344-0.219 0.453-0.609t-0.109-0.766l-1.406-2.5q 0.344-0.5 0.594-1.031l 2.938,0 q 0.438,0 0.719-0.281t 0.281-0.719l0-5.969 q0-0.438 -0.281-0.719t-0.719-0.281l-2.938,0 q-0.25-0.531 -0.594-1.063l 1.406-2.469q 0.219-0.375 0.109-0.766t-0.453-0.609l-5.156-3q-0.344-0.188 -0.75-0.078t-0.594,0.453l-1.469,2.563q-0.063,0 -0.25-0.016t-0.297-0.016t-0.313,0.016t-0.234,0.016l-1.469-2.563q-0.188-0.344 -0.594-0.453 t-0.75,0.078l-4.625,2.719l0-11.781 q0-0.844 0.578-1.422t 1.422-0.578l 13.969,0 l0,11 q0,0.406 0.297,0.703t 0.703,0.297l 11,0 l0,0.031 l0,17.938 q0,0.844 -0.578,1.422t-1.422,0.578zM 19.969,0q 0.813,0 1.406,0.563l 8,8.031q 0.594,0.594 0.594,1.438l-10,0 l0-10.031 zM 5.563,19l-1.469-2.594q-0.188-0.344 -0.094-0.734t 0.438-0.609l 1.656-0.969q 0.313-0.188 0.703-0.078t 0.578,0.453l 1.5,2.625 q 0.594-0.094 1.109-0.094t 1.141,0.094l 1.469-2.625q 0.219-0.344 0.594-0.453t 0.719,0.078l 1.625,0.969q 0.344,0.219 0.438,0.609t-0.094,0.734l-1.469,2.594q 0.813,0.906 1.219,1.969l 3.344,0 q 0.438,0 0.719,0.297t 0.281,0.703l0,2 q0,0.438 -0.281,0.719t-0.719,0.281l-3.344,0 q-0.406,1.094 -1.219,2l 1.469,2.594q 0.188,0.344 0.094,0.734t-0.438,0.578l-1.625,1q-0.344,0.188 -0.719,0.078t-0.594-0.453l-1.469-2.625 q-0.625,0.094 -1.141,0.094t-1.109-0.094l-1.5,2.625q-0.188,0.344 -0.563,0.453t-0.719-0.078l-1.656-1q-0.344-0.188 -0.438-0.578t 0.094-0.734l 1.469-2.594q-0.813-0.906 -1.188-2l-3.375,0 q-0.406,0 -0.703-0.281t-0.297-0.719l0-2 q0-0.406 0.297-0.703t 0.703-0.297l 3.375,0 q 0.375-1.063 1.188-1.969zM 9.984,24.969q 0.828,0 1.422-0.578t 0.594-1.406t-0.594-1.422t-1.422-0.594t-1.406,0.594t-0.578,1.422 t 0.578,1.406t 1.406,0.578z"></path></g></svg>