<?xml version="1.0" encoding="utf-8"?> <!-- Generator: IcoMoon.io --> <!DOCTYPE svg PUBLIC "-//W3C//DTD SVG 1.1//EN" "http://www.w3.org/Graphics/SVG/1.1/DTD/svg11.dtd"> <svg width="32" height="32" viewBox="0 0 32 32" xmlns="http://www.w3.org/2000/svg" xmlns:xlink="http://www.w3.org/1999/xlink" fill="#000000"><g><path d="M 20,8L 20,0 L 6,0 L0,6l0,18 l 12,0 l0,8 l 20,0 L 32,8 L 20,8 z M 6,2.828L 6,6 L 2.828,6 L 6,2.828z M 2,22L 2,8 l 6,0 L 8,2 l 10,0 l0,6 l-6,6l0,8 L 2,22 z M 18,10.828L 18,14 l-3.172,0 L 18,10.828z M 30,30L 14,30 L 14,16 l 6,0 l0-6 l 10,0 L 30,30 z"></path></g></svg>