<?xml version="1.0" encoding="utf-8"?> <!-- Generator: IcoMoon.io --> <!DOCTYPE svg PUBLIC "-//W3C//DTD SVG 1.1//EN" "http://www.w3.org/Graphics/SVG/1.1/DTD/svg11.dtd"> <svg width="32" height="32" viewBox="0 0 32 32" xmlns="http://www.w3.org/2000/svg" xmlns:xlink="http://www.w3.org/1999/xlink" fill="#000000"><g><path d="M 26.5,10.5 L 13,24 L 8,24 L 8,19 L 21.5,5.5 ZM 28.188,8.813 L 23.188,3.813 L 24.939,2.061 C 25.523,1.477 26.477,1.477 27.061,2.061 L 29.939,4.939 C 30.523,5.523 30.523,6.477 29.939,7.061 L 28.188,8.813 ZM 24,17.612L 24,28 L 4,28 L 4,8 l 11,0 l 4-4L 3,4 C 1.35,4,0,5.35,0,7l0,22 c0,1.65, 1.35,3, 3,3l 22,0 c 1.65,0, 3-1.35, 3-3L 28,14.020 L 24,17.612z"></path></g></svg>