<?xml version="1.0" encoding="utf-8"?> <!-- Generator: IcoMoon.io --> <!DOCTYPE svg PUBLIC "-//W3C//DTD SVG 1.1//EN" "http://www.w3.org/Graphics/SVG/1.1/DTD/svg11.dtd"> <svg width="32" height="32" viewBox="0 0 32 32" xmlns="http://www.w3.org/2000/svg" xmlns:xlink="http://www.w3.org/1999/xlink" fill="#000000"><g><path d="M 2,2L 10,2L 10,10L 2,10zM 12,2L 20,2L 20,10L 12,10zM 22,2L 30,2L 30,10L 22,10zM 2,12L 10,12L 10,20L 2,20zM 12,12L 20,12L 20,20L 12,20zM 22,12L 30,12L 30,20L 22,20zM 2,22L 10,22L 10,30L 2,30zM 12,22L 20,22L 20,30L 12,30zM 22,22L 30,22L 30,30L 22,30z"></path></g></svg>