<?xml version="1.0" encoding="utf-8"?> <!-- Generator: IcoMoon.io --> <!DOCTYPE svg PUBLIC "-//W3C//DTD SVG 1.1//EN" "http://www.w3.org/Graphics/SVG/1.1/DTD/svg11.dtd"> <svg width="32" height="32" viewBox="0 0 32 32" xmlns="http://www.w3.org/2000/svg" xmlns:xlink="http://www.w3.org/1999/xlink" fill="#000000"><g><path d="M 16,0C 7.163,0,0,7.163,0,16s 7.163,16, 16,16s 16-7.163, 16-16S 24.837,0, 16,0z M 9.464,26.067 C 9.811,25.11, 10,24.077, 10,23c0-3.886-2.463-7.197-5.913-8.456c 0.319-2.654, 1.508-5.109, 3.427-7.029 C 9.781,5.248, 12.795,4, 16,4s 6.219,1.248, 8.485,3.515c 1.92,1.92, 3.108,4.375, 3.428,7.029 C 24.463,15.803, 22,19.114, 22,23c0,1.077, 0.189,2.11, 0.536,3.067C 20.608,27.325, 18.356,28, 16,28 C 13.644,28, 11.392,27.325, 9.464,26.067zM 17.242,20.031 C 17.676,20.14 18,20.534 18,21 L 18,23 C 18,23.55 17.55,24 17,24 L 15,24 C 14.45,24 14,23.55 14,23 L 14,21 C 14,20.534 14.324,20.14 14.758,20.031 L 15.5,6 L 16.5,6 L 17.242,20.031 Z"></path></g></svg>