<?xml version="1.0" encoding="utf-8"?> <!-- Generator: IcoMoon.io --> <!DOCTYPE svg PUBLIC "-//W3C//DTD SVG 1.1//EN" "http://www.w3.org/Graphics/SVG/1.1/DTD/svg11.dtd"> <svg width="32" height="32" viewBox="0 0 32 32" xmlns="http://www.w3.org/2000/svg" xmlns:xlink="http://www.w3.org/1999/xlink" fill="#000000"><g><path d="M 31,26q 0.406,0 0.703,0.297t 0.297,0.703l0,4 q0,0.406 -0.297,0.703t-0.703,0.297l-4,0 q-0.406,0 -0.703-0.297t-0.297-0.703l0-1 l-20,0 l0,1 q0,0.406 -0.297,0.703t-0.703,0.297l-4,0 q-0.406,0 -0.703-0.297t-0.297-0.703l0-4 q0-0.406 0.297-0.703t 0.703-0.297l 1,0 l0-20 l-1,0 q-0.406,0 -0.703-0.297t-0.297-0.703l0-4 q0-0.406 0.297-0.703 t 0.703-0.297l 4,0 q 0.406,0 0.703,0.297t 0.297,0.703l0,1 l 20,0 l0-1 q0-0.406 0.297-0.703t 0.703-0.297l 4,0 q 0.406,0 0.703,0.297t 0.297,0.703l0,4 q0,0.406 -0.297,0.703t-0.703,0.297l-1,0 l0,20 l 1,0 zM 2,29.5q0,0.219 0.141,0.359t 0.359,0.141l 1,0 q 0.219,0 0.359-0.141t 0.141-0.359l0-1 q0-0.219 -0.141-0.359t-0.359-0.141l-1,0 q-0.219,0 -0.359,0.141 t-0.141,0.359l0,1 zM 4,2.5q0-0.219 -0.141-0.359t-0.359-0.141l-1,0 q-0.219,0 -0.359,0.141t-0.141,0.359l0,1 q0,0.219 0.141,0.359t 0.359,0.141l 1,0 q 0.219,0 0.359-0.141t 0.141-0.359l0-1 zM 26,5l0-1 l-20,0 l0,1 q0,0.406 -0.297,0.703t-0.703,0.297l-1,0 l0,20 l 1,0 q 0.406,0 0.703,0.297t 0.297,0.703l0,1 l 20,0 l0-1 q0-0.406 0.297-0.703 t 0.703-0.297l 1,0 l0-20 l-1,0 q-0.406,0 -0.703-0.297t-0.297-0.703zM 30,2.5q0-0.219 -0.141-0.359t-0.359-0.141l-1,0 q-0.219,0 -0.359,0.141t-0.141,0.359l0,1 q0,0.219 0.141,0.359t 0.359,0.141l 1,0 q 0.219,0 0.359-0.141t 0.141-0.359l0-1 zM 29.5,28l-1,0 q-0.219,0 -0.359,0.141t-0.141,0.359l0,1 q0,0.219 0.141,0.359t 0.359,0.141l 1,0 q 0.219,0 0.359-0.141 t 0.141-0.359l0-1 q0-0.219 -0.141-0.359t-0.359-0.141zM 14.906,19.219l 4.656-4.688q 0.563-0.563 1.453-0.563t 1.453,0.563l 1.531,1.531l0,7.938 l-4.375,0 zM 11,14q-1.25,0 -2.125-0.875t-0.875-2.125t 0.875-2.125t 2.125-0.875t 2.125,0.875t 0.875,2.125t-0.875,2.125t-2.125,0.875zM 11.469,18.563l 5.406,5.438l-8.875,0 l0-4.875 l 0.563-0.563q 0.563-0.594 1.453-0.594t 1.453,0.594z"></path></g></svg>