<?xml version="1.0" encoding="utf-8"?> <!-- Generator: IcoMoon.io --> <!DOCTYPE svg PUBLIC "-//W3C//DTD SVG 1.1//EN" "http://www.w3.org/Graphics/SVG/1.1/DTD/svg11.dtd"> <svg version="1.1" id="Layer_1" xmlns="http://www.w3.org/2000/svg" xmlns:xlink="http://www.w3.org/1999/xlink" x="0px" y="0px" width="32" height="32" viewBox="0 0 32 32" enable-background="new 0 0 512 512" xml:space="preserve" data-licenselink="http://icomoon.io/#icons#license" data-license="Royalty Free" data-authorlink="http://keyamoon.com/" data-author="Keyamoon" fill="#000000"> <g><path d="M 15,23L 24,14L 18,14L 18,2L 12,2L 12,14L 6,14 zM 30,30L 30,8 c0-1.1-0.9-2-2-2l-2,0 l 0,4 l 0,3.281 L 26,28 l-22,0 L 4,10.688 l0-0.688 L 4,6 l-2,0 c-1.1,0, -2,0.9, -2,2l 0,22 c 0,1.1, 0.9,2, 2,2L 28,32 C 29.1,32, 30,31.1, 30,30z"></path></g></svg>