<?xml version="1.0" encoding="utf-8"?> <!-- Generator: IcoMoon.io --> <!DOCTYPE svg PUBLIC "-//W3C//DTD SVG 1.1//EN" "http://www.w3.org/Graphics/SVG/1.1/DTD/svg11.dtd"> <svg version="1.1" id="Layer_1" xmlns="http://www.w3.org/2000/svg" xmlns:xlink="http://www.w3.org/1999/xlink" x="0px" y="0px" width="32" height="32" viewBox="0 0 32 32" enable-background="new 0 0 512 512" xml:space="preserve" fill="#000000"> <g><g> </g><path d="M 16,0l0,4.016 c 6.619,0, 11.984,5.366, 11.984,11.984c0,6.619-5.366,11.984-11.984,11.984L16,32 c 8.837,0, 16-7.163, 16-16 C 32,7.163, 24.837,0, 16,0zM 10,0L 16,0L 16,4L 10,4zM 10,28L 16,28L 16,32L 10,32zM 21,17L 12,8L 12,14L0,14L0,20L 12,20L 12,26 z"></path></g></svg>