<!-- Generated by IcoMoon.io -->
<svg version="1.1" xmlns="http://www.w3.org/2000/svg" width="32" height="32" viewBox="0 0 32 32">
<title>datasource-processor-open</title>
<path d="M10 28h5v4h-5v-4z"></path>
<path d="M26 17c0 6.075-4.925 11-11 11v4c8.281 0 15-6.719 15-15 0-1.756-0.3-3.438-0.856-5h-4.344c0.769 1.5 1.2 3.2 1.2 5z"></path>
<path d="M15.975 23.975v-11.963l-3.987 3.987-7.975-7.975-3.987 3.987 7.975 7.975-3.987 3.988z"></path>
<path d="M18 0h14v4h-14v-4z"></path>
<path d="M18 6h14v4h-14v-4z"></path>
</svg>
