<?xml version="1.0" encoding="utf-8"?> <!-- Generator: IcoMoon.io --> <!DOCTYPE svg PUBLIC "-//W3C//DTD SVG 1.1//EN" "http://www.w3.org/Graphics/SVG/1.1/DTD/svg11.dtd"> <svg width="32" height="32" viewBox="0 0 32 32" xmlns="http://www.w3.org/2000/svg" xmlns:xlink="http://www.w3.org/1999/xlink" fill="#000000"><g><path d="M 30,10l 2-4L 32,2 l-3,6L 25.444,8 c-0.267-0.293-0.66-0.573-1.233-0.894l-4.423-2.211C 18.805,4.402, 17.1,4, 16,4 c-1.1,0-2.805,0.402-3.789,0.895l-4.422,2.211c-0.574,0.321-0.966,0.601-1.233,0.894L 3,8 L0,2l0,4 l 2,4l 4,0 l0,4 L0,16l0,2 l 6-2l0,6 L 4,22 L0,32l 2,0 l 3.2-8l 1.044,0 c 0.278,0.78, 0.765,1.542, 1.317,1.983l 6.876,5.501 C 14.868,31.828, 15.434,32, 16,32c 0.566,0, 1.132-0.172, 1.562-0.515l 6.876-5.501c 0.552-0.442, 1.039-1.203, 1.317-1.983 L 26.8,24 L 30,32l 2,0 l-4-10l-2,0 l0-6 l 6,2l0-2 l-6-2l0-4 L 30,10 z M 17,28l-2,0 L 15,8 l 2,0 L 17,28 zM 20,3.889L 20,2 c0-1.1-0.9-2-2-2l-4,0 c-1.1,0-2,0.9-2,2l0,1.889 C 13.133,3.382, 14.83,3, 16,3 C 17.17,3, 18.867,3.382, 20,3.889z"></path></g></svg>