<?xml version="1.0" encoding="utf-8"?> <!-- Generator: IcoMoon.io --> <!DOCTYPE svg PUBLIC "-//W3C//DTD SVG 1.1//EN" "http://www.w3.org/Graphics/SVG/1.1/DTD/svg11.dtd"> <svg width="32" height="32" viewBox="0 0 32 32" xmlns="http://www.w3.org/2000/svg" xmlns:xlink="http://www.w3.org/1999/xlink" fill="#000000"><g><path d="M 16,0C 7.163,0,0,7.163,0,16s 7.163,16, 16,16s 16-7.163, 16-16S 24.837,0, 16,0z M 16,28 c-6.627,0-12-5.373-12-12c0-6.627, 5.373-12, 12-12c 6.627,0, 12,5.373, 12,12C 28,22.627, 22.627,28, 16,28zM 22,19.172 L 22,22 L 19.172,22 L 16,18.828 L 12.828,22 L 10,22 L 10,19.172 L 13.172,16 L 10,12.828 L 10,10 L 12.828,10 L 16,13.172 L 19.172,10 L 22,10 L 22,12.828 L 18.828,16 Z"></path></g></svg>