<?xml version="1.0" encoding="utf-8"?> <!-- Generator: IcoMoon.io --> <!DOCTYPE svg PUBLIC "-//W3C//DTD SVG 1.1//EN" "http://www.w3.org/Graphics/SVG/1.1/DTD/svg11.dtd"> <svg version="1.1" id="Layer_1" xmlns="http://www.w3.org/2000/svg" xmlns:xlink="http://www.w3.org/1999/xlink" x="0px" y="0px" width="32" height="32" viewBox="0 0 32 32" enable-background="new 0 0 512 512" xml:space="preserve" fill="#000000"> <g><g> </g><path d="M 15.484,27.031L15.484,5.865 c0,0-2.323-2.881-6.258-2.881S 2.969,6, 2.969,6l0,21.031 c0,0, 2.323-2.047, 6.258-2.047 C 13.161,24.984, 15.484,27.031, 15.484,27.031zM 29.094,27.031L29.094,6 c0,0-2.354-3.016-6.289-3.016c-3.935,0-6.289,2.618-6.289,2.618L16.516,27.031 c0,0, 2.354-2.109, 6.289-2.109C 26.74,24.922, 29.094,27.031, 29.094,27.031zM 32,6L 30,6L 29.935,28L 18,28L 18,30L 14,30L 14,28L 2,28L 2,6L0,6L0,30L 12,30L 12,32L 20,32L 20,30L 32,30 z"></path></g></svg>