<?xml version="1.0" encoding="utf-8"?> <!-- Generator: IcoMoon.io --> <!DOCTYPE svg PUBLIC "-//W3C//DTD SVG 1.1//EN" "http://www.w3.org/Graphics/SVG/1.1/DTD/svg11.dtd"> <svg version="1.1" id="Layer_1" xmlns="http://www.w3.org/2000/svg" xmlns:xlink="http://www.w3.org/1999/xlink" x="0px" y="0px" width="32" height="32" viewBox="0 0 32 32" enable-background="new 0 0 512 512" xml:space="preserve" fill="#000000"> <g><g> </g><path d="M 31,17L 22,8L 22,14L 10,14L 10,20L 22,20L 22,26 zM 4,32l22,0 c 1.1,0, 2-0.9, 2-2l0,-2 l-4,0 l-3.281,0 L6,28 L6,6 l17.313,0 l0.688,0 l4,0 L28,4 c0-1.1-0.9-2-2-2L4,2 c-1.1,0-2,0.9-2,2l0,26 C 2,31.1, 2.9,32, 4,32z"></path></g></svg>