<?xml version="1.0" encoding="utf-8"?> <!-- Generator: IcoMoon.io --> <!DOCTYPE svg PUBLIC "-//W3C//DTD SVG 1.1//EN" "http://www.w3.org/Graphics/SVG/1.1/DTD/svg11.dtd"> <svg width="32" height="32" viewBox="0 0 32 32" xmlns="http://www.w3.org/2000/svg" xmlns:xlink="http://www.w3.org/1999/xlink" fill="#000000"><g><path d="M 2,2l 18,0 l0,6 l 6,0 l0,10 l 2,0 L 28,8 L 20,0L0,0 l0,32 l 18,0 l0-2 L 2,30 L 2,2 zM 28.828,26L 32,22.828L 32,20L 29.172,20L 26,23.172L 22.828,20L 20,20L 20,22.828L 23.172,26L 20,29.172L 20,32L 22.828,32L 26,28.828L 29.172,32L 32,32L 32,29.172 z"></path></g></svg>