<?xml version="1.0" encoding="utf-8"?> <!-- Generator: IcoMoon.io --> <!DOCTYPE svg PUBLIC "-//W3C//DTD SVG 1.1//EN" "http://www.w3.org/Graphics/SVG/1.1/DTD/svg11.dtd"> <svg width="32" height="32" viewBox="0 0 32 32" xmlns="http://www.w3.org/2000/svg" xmlns:xlink="http://www.w3.org/1999/xlink" fill="#000000"><g><path d="M 28,32l-24,0 q-0.813,0 -1.406-0.578t-0.594-1.422l0-27.969 q0-0.844 0.594-1.422t 1.406-0.578l 14,0 l0,11 q0,0.406 0.297,0.703t 0.703,0.297l 11,0 l0,0.031 l0,17.938 q0,0.844 -0.578,1.422t-1.422,0.578zM 19.844,26.219l-2.875-2.875q 1.031-1.5 1.031-3.344q0-2.5 -1.75-4.25t-4.234-1.75t-4.25,1.75t-1.766,4.25t 1.766,4.25t 4.234,1.75q 1.844,0 3.344-1.031l 2.875,2.875 q 0.156,0.156 0.391,0.156t 0.422-0.156l 0.813-0.813q 0.156-0.188 0.156-0.422t-0.156-0.391zM 12,24q-1.656,0 -2.828-1.172t-1.172-2.828t 1.172-2.828t 2.828-1.172t 2.828,1.172t 1.172,2.828t-1.172,2.828t-2.828,1.172zM 20,0q 0.813,0 1.375,0.563l 8.031,8.031q 0.594,0.594 0.594,1.438l-10,0 l0-10.031 z"></path></g></svg>