<?xml version="1.0" encoding="utf-8"?> <!-- Generator: IcoMoon.io --> <!DOCTYPE svg PUBLIC "-//W3C//DTD SVG 1.1//EN" "http://www.w3.org/Graphics/SVG/1.1/DTD/svg11.dtd"> <svg width="32" height="32" viewBox="0 0 32 32" xmlns="http://www.w3.org/2000/svg" xmlns:xlink="http://www.w3.org/1999/xlink" fill="#000000"><g><path d="M 30,0L 2,0 C 0.896,0,0,0.896,0,2l0,20 c0,1.104, 0.896,2, 2,2l 8,0 l-4,8l 1,0 l 7.2-8l 3.6,0 l 7.2,8l 1,0 l-4-8l 8,0 c 1.104,0, 2-0.896, 2-2L 32,2 C 32,0.896, 31.104,0, 30,0z M 30,21c0,0.553-0.447,1-1,1L 3,22 c-0.553,0-1-0.447-1-1L 2,3 c0-0.553, 0.447-1, 1-1 l 26,0 c 0.553,0, 1,0.447, 1,1L 30,21 z M 20.878,15.631L 16.357,4.002l-4.938,9.29l-2.756-2.835L 4,13.363l 1.316,0.758l 0.633-0.394l 2.355-1.468 l 3.605,3.712l 4.175-7.853l 4.616,11.879l 3.937-8.288l 1.604,3.414L 28,14.828l-3.354-7.132L 20.878,15.631z"></path></g></svg>