<?xml version="1.0" encoding="utf-8"?> <!-- Generator: IcoMoon.io --> <!DOCTYPE svg PUBLIC "-//W3C//DTD SVG 1.1//EN" "http://www.w3.org/Graphics/SVG/1.1/DTD/svg11.dtd"> <svg width="32" height="32" viewBox="0 0 32 32" xmlns="http://www.w3.org/2000/svg" xmlns:xlink="http://www.w3.org/1999/xlink" fill="#000000"><g><path d="M 16,0C 7.163,0,0,7.163,0,16s 7.163,16, 16,16c 8.837,0, 16-7.163, 16-16S 24.837,0, 16,0z M 18,26l-4,0 l0-4 l 4,0 L 18,26 z M 24,14c0,2.206-1.794,4-4,4l-1.996,0 c-0.001,0.001-0.003,0.002-0.004,0.004L 18,20 l-4,0 l0-2 c0-2.206, 1.794-4, 4-4l 1.996,0 c 0.001-0.001, 0.003-0.002, 0.004-0.004l0-3.993 c-0.001-0.001-0.002-0.003-0.004-0.004L 10,10 L 10,6 l 10,0 c 2.206,0, 4,1.794, 4,4L 24,14 z"></path></g></svg>