<?xml version="1.0" encoding="utf-8"?> <!-- Generator: IcoMoon.io --> <!DOCTYPE svg PUBLIC "-//W3C//DTD SVG 1.1//EN" "http://www.w3.org/Graphics/SVG/1.1/DTD/svg11.dtd"> <svg width="33" height="32" viewBox="0 0 33 32" xmlns="http://www.w3.org/2000/svg" xmlns:xlink="http://www.w3.org/1999/xlink" fill="#000000"><g><path d="M 18,2 C 25.732,2 32,8.268 32,16 C 32,23.732 25.732,30 18,30 L 18,27 C 20.938,27 23.701,25.856 25.778,23.778 C 27.856,21.701 29,18.938 29,16 C 29,13.062 27.856,10.299 25.778,8.222 C 23.701,6.144 20.938,5 18,5 C 15.062,5 12.299,6.144 10.222,8.222 C 8.624,9.82 7.579,11.823 7.181,14 L 13,14 L 6,22 L -1,14 L 4.143,14 C 5.113,7.216 10.947,2 18,2 ZM 24,14 L 24,18 L 16,18 L 16,8 L 20,8 L 20,14 Z"></path></g></svg>