<?xml version="1.0" encoding="utf-8"?> <!-- Generator: IcoMoon.io --> <!DOCTYPE svg PUBLIC "-//W3C//DTD SVG 1.1//EN" "http://www.w3.org/Graphics/SVG/1.1/DTD/svg11.dtd"> <svg width="32" height="32" viewBox="0 0 32 32" xmlns="http://www.w3.org/2000/svg" xmlns:xlink="http://www.w3.org/1999/xlink" fill="#000000"><g><path d="M 20,12l-6,10l-3.97-2.896L 10,19l-0.236-0.091l 0.184,0.135L 4,24l0,2 l 24,0 l0-2 l-3-9L 20,12z M 9,13c 1.656,0, 3-1.343, 3-3 s-1.344-3-3-3s-3,1.343-3,3S 7.344,13, 9,13z M 31,2L 1,2 C 0.448,2,0,2.448,0,3l0,26 c0,0.553, 0.448,1, 1,1l 30,0 c 0.553,0, 1-0.447, 1-1L 32,3 C 32,2.448, 31.553,2, 31,2z M 30,27c0,0.553-0.447,1-1,1L 3,28 c-0.552,0-1-0.447-1-1L 2,5 c0-0.552, 0.448-1, 1-1l 26,0 c 0.553,0, 1,0.448, 1,1L 30,27 z"></path></g></svg>