<?xml version="1.0" encoding="utf-8"?> <!-- Generator: IcoMoon.io --> <!DOCTYPE svg PUBLIC "-//W3C//DTD SVG 1.1//EN" "http://www.w3.org/Graphics/SVG/1.1/DTD/svg11.dtd"> <svg version="1.1" id="Layer_1" xmlns="http://www.w3.org/2000/svg" xmlns:xlink="http://www.w3.org/1999/xlink" x="0px" y="0px" width="32" height="32" viewBox="0 0 32 32" enable-background="new 0 0 512 512" xml:space="preserve" data-licenselink="http://icomoon.io/#icons#license" data-license="&amp;nbsp;" data-authorlink="http://keyamoon.com/" data-author="&amp;nbsp;" fill="#000000"> <g><path d="M 15,11L 6,20L 12,20L 12,32L 18,32L 18,20L 24,20 zM 0,4L 0,26 c0,1.1 0.9,2 2,2l 2,0 l 0-4 l 0-3.281 L 4,6 l 22,0 L 26,23.313 l0,0.688 L 26,28 l 2,0 c 1.1,0, 2-0.9, 2-2l 0-22 c 0-1.1, -0.9-2, -2-2L 2,2 C 0.9,2, 0,2.9, 0,4z"></path></g></svg>