<?xml version="1.0" encoding="utf-8"?> <!-- Generator: IcoMoon.io --> <!DOCTYPE svg PUBLIC "-//W3C//DTD SVG 1.1//EN" "http://www.w3.org/Graphics/SVG/1.1/DTD/svg11.dtd"> <svg version="1.1" id="Layer_1" xmlns="http://www.w3.org/2000/svg" xmlns:xlink="http://www.w3.org/1999/xlink" x="0px" y="0px" width="32" height="32" viewBox="0 0 32 32" enable-background="new 0 0 512 512" xml:space="preserve" fill="#000000"> <g><g> </g><path d="M 12.438,0C 6.915,0, 2.438,4.477, 2.438,10c0,10, 10,18, 10,18s 10-8, 10-18C 22.438,4.477, 17.96,0, 12.438,0z M 12.438,16.125 c-3.383,0-6.125-2.742-6.125-6.125s 2.742-6.125, 6.125-6.125s 6.125,2.742, 6.125,6.125S 15.82,16.125, 12.438,16.125z M 8.563,10c0,2.14, 1.735,3.875, 3.875,3.875 s 3.875-1.735, 3.875-3.875s-1.735-3.875-3.875-3.875S 8.563,7.86, 8.563,10z M 21.008,21.801c-0.443,0.696-0.902,1.356-1.364,1.976 c 0.073,0.034, 0.146,0.069, 0.217,0.105C 21.382,24.642, 22.063,25.494, 22.063,26c0,0.506-0.681,1.358-2.202,2.118 C 17.946,29.076, 15.24,29.625, 12.438,29.625s-5.508-0.549-7.423-1.507C 3.493,27.358, 2.813,26.506, 2.813,26 c0-0.506, 0.681-1.358, 2.202-2.118c 0.071-0.035, 0.144-0.070, 0.217-0.105c-0.462-0.62-0.921-1.28-1.364-1.976 C 1.746,22.883, 0.438,24.365, 0.438,26c0,3.314, 5.373,6, 12,6s 12-2.686, 12-6C 24.438,24.365, 23.129,22.883, 21.008,21.801zM 26,12L 28,12L 28,22L 26,22zM 22,16L 32,16L 32,18L 22,18z"></path></g></svg>