<?xml version="1.0" encoding="utf-8"?> <!-- Generator: IcoMoon.io --> <!DOCTYPE svg PUBLIC "-//W3C//DTD SVG 1.1//EN" "http://www.w3.org/Graphics/SVG/1.1/DTD/svg11.dtd"> <svg width="32" height="32" viewBox="0 0 32 32" xmlns="http://www.w3.org/2000/svg" xmlns:xlink="http://www.w3.org/1999/xlink" fill="#000000"><g><path d="M 16,0C 10.477,0, 6,4.477, 6,10c0,10, 10,18, 10,18s 10-8, 10-18C 26,4.477, 21.523,0, 16,0z M 16,16.125 c-3.383,0-6.125-2.742-6.125-6.125s 2.742-6.125, 6.125-6.125s 6.125,2.742, 6.125,6.125S 19.383,16.125, 16,16.125z M 12.125,10c0,2.14, 1.735,3.875, 3.875,3.875 c 2.14,0, 3.875-1.735, 3.875-3.875s-1.735-3.875-3.875-3.875C 13.86,6.125, 12.125,7.86, 12.125,10zM 24.57,21.801c-0.443,0.696-0.902,1.356-1.364,1.976c 0.073,0.034, 0.146,0.069, 0.217,0.105 C 24.944,24.642, 25.625,25.494, 25.625,26s-0.681,1.358-2.202,2.118C 21.508,29.076, 18.803,29.625, 16,29.625 s-5.508-0.549-7.423-1.507C 7.056,27.358, 6.375,26.506, 6.375,26s 0.681-1.358, 2.202-2.118 c 0.071-0.035, 0.144-0.070, 0.217-0.105c-0.462-0.62-0.921-1.28-1.364-1.976C 5.308,22.883, 4,24.365, 4,26 c0,3.314, 5.373,6, 12,6c 6.627,0, 12-2.686, 12-6C 28,24.365, 26.692,22.883, 24.57,21.801z"></path></g></svg>