<?xml version="1.0" encoding="utf-8"?> <!-- Generator: IcoMoon.io --> <!DOCTYPE svg PUBLIC "-//W3C//DTD SVG 1.1//EN" "http://www.w3.org/Graphics/SVG/1.1/DTD/svg11.dtd"> <svg width="32" height="32" viewBox="0 0 32 32" xmlns="http://www.w3.org/2000/svg" xmlns:xlink="http://www.w3.org/1999/xlink" fill="#000000"><g><path d="M 29,2L 3,2 C 1.35,2,0,3.35,0,5l0,16 c0,1.65, 1.35,3, 3,3l 5,0 l0,8 l 9.6-8L 29,24 c 1.65,0, 3-1.35, 3-3L 32,5 C 32,3.35, 30.65,2, 29,2z M 12,16l-4,0 l0-4 l 4,0 L 12,16 z M 18,16l-4,0 l0-4 l 4,0 L 18,16 z M 24,16l-4,0 l0-4 l 4,0 L 24,16 z"></path></g></svg>