<?xml version="1.0" encoding="utf-8"?> <!-- Generator: IcoMoon.io --> <!DOCTYPE svg PUBLIC "-//W3C//DTD SVG 1.1//EN" "http://www.w3.org/Graphics/SVG/1.1/DTD/svg11.dtd"> <svg width="36" height="32" viewBox="0 0 36 32" xmlns="http://www.w3.org/2000/svg" xmlns:xlink="http://www.w3.org/1999/xlink" fill="#000000"><g><path d="M 25,0 C 26.65,0 28,1.35 28,3 L 28,13 C 28,14.65 26.65,16 25,16 L 13.6,16 L 4,24 L 4,16 L 3,16 C 1.35,16 0,14.65 0,13 L 0,3 C 0,1.35 1.35,0 3,0 L 25,0 ZM 33,6 C 34.65,6 36,7.35 36,9 L 36,21 C 36,22.65 34.65,24 33,24 L 28,24 L 28,32 L 18.4,24 L 12,24 L 12,20 L 19.848,20 L 26,25.46 L 26,20 L 32,20 L 32,10 L 30,10 L 30,6 L 33,6 Z"></path></g></svg>