<?xml version="1.0" encoding="utf-8"?> <!-- Generator: IcoMoon.io --> <!DOCTYPE svg PUBLIC "-//W3C//DTD SVG 1.1//EN" "http://www.w3.org/Graphics/SVG/1.1/DTD/svg11.dtd"> <svg width="32" height="32" viewBox="0 0 32 32" xmlns="http://www.w3.org/2000/svg" xmlns:xlink="http://www.w3.org/1999/xlink" fill="#000000"><g><path d="M 30,4L 2,4 C 0.9,4,0,4.9,0,6l0,20 c0,1.1, 0.9,2, 2,2l 28,0 c 1.1,0, 2-0.9, 2-2L 32,6 C 32,4.9, 31.1,4, 30,4z M 28,8 l0,1.438 L 16,16.509L 4,9.438l0-1.438 L 28,8 z M 4,24L 4,12.92 l 12,7.071l 12-7.071L 28,24 L 4,24 z"></path></g></svg>