<?xml version="1.0" encoding="utf-8"?> <!-- Generator: IcoMoon.io --> <!DOCTYPE svg PUBLIC "-//W3C//DTD SVG 1.1//EN" "http://www.w3.org/Graphics/SVG/1.1/DTD/svg11.dtd"> <svg width="32" height="32" viewBox="0 0 32 32" xmlns="http://www.w3.org/2000/svg" xmlns:xlink="http://www.w3.org/1999/xlink" fill="#000000"><g><path d="M 28,28q0,1.656 -1.172,2.828t-2.828,1.172l-14,0 q-0.313,0 -0.625-0.078t-0.547-0.156t-0.5-0.297t-0.422-0.328t-0.391-0.438t-0.328-0.453t-0.328-0.563t-0.281-0.531l-0.297-0.594l-0.281-0.563q-0.438-0.906 -1.109-2.313t-1.781-4.141t-1.109-3.547l0-4 q0-0.813 0.594-1.406t 1.422-0.594t 1.406,0.594t 0.578,1.406l0,1 q0,0.406 0.297,0.703t 0.703,0.297t 0.703-0.297 t 0.297-0.703l0-13 q0-0.813 0.594-1.406t 1.422-0.594t 1.406,0.578t 0.578,1.422l0,13 q0,0.406 0.297,0.703t 0.703,0.297t 0.703-0.297t 0.297-0.703l0-5 q0-0.813 0.594-1.406t 1.422-0.594t 1.406,0.594t 0.578,1.406l0,5 q0,0.406 0.297,0.703t 0.719,0.297t 0.703-0.297t 0.281-0.703l0-5 q0-0.813 0.594-1.406t 1.422-0.594t 1.406,0.594t 0.578,1.406l0,5 q0,0.406 0.297,0.703t 0.719,0.297 t 0.703-0.297t 0.281-0.703l0-3 q0-0.813 0.594-1.406t 1.422-0.594t 1.406,0.594t 0.578,1.406l0,8 q0,0.563 -0.5,2.563t-1,3.719z"></path></g></svg>