<?xml version="1.0" encoding="utf-8"?> <!-- Generator: IcoMoon.io --> <!DOCTYPE svg PUBLIC "-//W3C//DTD SVG 1.1//EN" "http://www.w3.org/Graphics/SVG/1.1/DTD/svg11.dtd"> <svg width="32" height="32" viewBox="0 0 32 32" xmlns="http://www.w3.org/2000/svg" xmlns:xlink="http://www.w3.org/1999/xlink" fill="#000000"><g><path d="M 26,10L 26,5 c0-0.55-0.45-1-1-1L 18,4 L 18,2 c0-1.1-0.9-2-2-2l-4,0 c-1.1,0-2,0.9-2,2l0,2 L 3,4 c-0.55,0-1,0.45-1,1l0,20 c0,0.55, 0.45,1, 1,1l 9,0 l0,6 l 14,0 l 6-6L 32,10 L 26,10 z M 12,2.004c 0.001-0.001, 0.002-0.002, 0.004-0.004l 3.993,0 c 0.001,0.001, 0.003,0.002, 0.004,0.004L 16,4 l-4,0 L 12,2.004 z M 6,8L 6,6 l 16,0 l0,2 L 6,8 z M 26,29.172L 26,26 l 3.172,0 L 26,29.172z M 30,24l-6,0 l0,6 L 14,30 L 14,12 l 16,0 L 30,24 z"></path></g></svg>