<?xml version="1.0" encoding="utf-8"?> <!-- Generator: IcoMoon.io --> <!DOCTYPE svg PUBLIC "-//W3C//DTD SVG 1.1//EN" "http://www.w3.org/Graphics/SVG/1.1/DTD/svg11.dtd"> <svg width="32.16603088378906" height="32.166133880615234" viewBox="0 0 32.16603088378906 32.166133880615234" xmlns="http://www.w3.org/2000/svg" xmlns:xlink="http://www.w3.org/1999/xlink" fill="#000000"><g><path d="M 24.815,7.185A3,6.5 2115 1 1 29.058,2.942A3,6.5 2115 1 1 24.815,7.185zM 12.243,25.436 L 26.346,11.334 C 27.196,11.81 28.045,12.15 28.856,12.337 L 14,27.192 L 0,32 L 4.808,18 L 19.663,3.144 C 19.736,3.468 19.834,3.799 19.958,4.134 C 20.142,4.634 20.381,5.144 20.667,5.653 L 6.564,19.757 L 8.244,21.436 L 22.035,7.645 C 22.375,8.062 22.743,8.471 23.136,8.864 C 23.532,9.26 23.94,9.629 24.354,9.967 L 10.564,23.757 L 12.243,25.436 Z"></path></g></svg>