<!-- Generated by IcoMoon.io -->
<svg version="1.1" xmlns="http://www.w3.org/2000/svg" width="16" height="16" viewBox="0 0 16 16">
<title>point-time-process</title>
<path d="M8 3.003v0l-1-0.003v4.084c-0.581 0.206-1 0.763-1 1.416 0 0.828 0.672 1.5 1.5 1.5 0.653 0 1.209-0.419 1.416-1h3.084v-1h-3.084c-0.15-0.425-0.488-0.763-0.916-0.916v-4.081z"></path>
<path d="M9.016 0h7v2h-7v-2z"></path>
<path d="M8.984 3h7v2h-7v-2z"></path>
<path d="M13.984 8.5c0 3.591-2.909 6.5-6.5 6.5s-6.5-2.909-6.5-6.5 2.909-6.5 6.5-6.5c0.175 0 0.347 0.006 0.516 0.022v-1.003c-0.172-0.012-0.344-0.019-0.516-0.019-4.141 0-7.5 3.359-7.5 7.5s3.359 7.5 7.5 7.5c4.141 0 7.5-3.359 7.5-7.5 0-0.878-0.15-1.719-0.428-2.5h-1.072c0.322 0.769 0.5 1.612 0.5 2.5z"></path>
<path d="M6.984 3v4.084c-0.581 0.206-1 0.763-1 1.416 0 0.828 0.672 1.5 1.5 1.5 0.653 0 1.209-0.419 1.416-1h3.084v-1h-3.084c-0.15-0.425-0.488-0.763-0.916-0.916v-4.084h-1z"></path>
</svg>
