<!-- Generated by IcoMoon.io -->
<svg version="1.1" xmlns="http://www.w3.org/2000/svg" width="32" height="32" viewBox="0 0 32 32">
<title>point-text-process</title>
<path d="M16.781 27.969l-0.25-1.688h-0.094c-0.938 1.188-2.531 2.031-4.5 2.031-3.063 0-4.781-2.219-4.781-4.531 0-3.844 3.406-5.781 9.031-5.75v-0.25c0-1-0.406-2.656-3.094-2.656-1.5 0-3.063 0.469-4.094 1.125l-0.75-2.5c1.125-0.688 3.094-1.344 5.5-1.344 4.875 0 6.281 3.094 6.281 6.406v5.5c0 1.375 0.063 2.719 0.219 3.656h-3.469zM16.281 20.531c-2.719-0.063-5.313 0.531-5.313 2.844 0 1.5 0.969 2.188 2.188 2.188 1.531 0 2.656-1 3-2.094 0.094-0.281 0.125-0.594 0.125-0.844v-2.094z"></path>
<path d="M18.063 0h14v4h-14v-4z"></path>
<path d="M18 6h14v4h-14v-4z"></path>
</svg>
