<!-- Generated by IcoMoon.io -->
<svg version="1.1" xmlns="http://www.w3.org/2000/svg" width="32" height="32" viewBox="0 0 32 32">
<title>point-number-discrete-rating</title>
<path d="M0 22h5.969v2h-5.969v-2z"></path>
<path d="M3.994 5.969h1.975v16.031h-1.975v-16.031z"></path>
<path d="M5.906 5.969h8.125v2h-8.125v-2z"></path>
<path d="M12.031 7.987h2v16.031h-2v-16.031z"></path>
<path d="M28.031 22h3.969v2h-3.969v-2z"></path>
<path d="M14.031 22h5.938v2h-5.938v-2z"></path>
<path d="M17.969 11.994h2v10.006h-2v-10.006z"></path>
<path d="M28.031 13.956l-0.044 0.044h0.044z"></path>
<path d="M26.031 12h2v12h-2v-12z"></path>
<path d="M17.969 0.006h2v8h-2v-8z"></path>
<path d="M17.969 8.006h14v2h-14v-2z"></path>
<path d="M31.969 0.037c0 1.325 0 2.644 0 3.969-1.994-0.081-5.475 0.081-9.063 2-1.175 0.625-2.144 1.331-2.938 2-0.669-0.938-1.331-1.875-2-2.813 0.725-0.588 1.731-1.35 3-2.125 1.238-0.756 2.819-1.725 5-2.375 1.3-0.388 3.363-0.831 6-0.656z"></path>
</svg>
