<?xml version="1.0" encoding="utf-8"?> <!-- Generator: IcoMoon.io --> <!DOCTYPE svg PUBLIC "-//W3C//DTD SVG 1.1//EN" "http://www.w3.org/Graphics/SVG/1.1/DTD/svg11.dtd"> <svg width="32" height="32" viewBox="0 0 32 32" xmlns="http://www.w3.org/2000/svg" xmlns:xlink="http://www.w3.org/1999/xlink" fill="#000000"><g><path d="M 15,2C 6.716,2,0,8.716,0,17c0,8.284, 6.716,15, 15,15c 8.284,0, 15-6.716, 15-15 C 30,8.716, 23.284,2, 15,2z M 15,30c-7.18,0-13-5.82-13-13S 7.82,4, 15,4s 13,5.82, 13,13 S 22.18,30, 15,30zM 16,14.171L 16,6 l-2,0 l0,8.171 c-1.165,0.412-2,1.522-2,2.829c0,1.657, 1.343,3, 3,3c 1.306,0, 2.417-0.835, 2.829-2 L 24,18 l0-2 l-6.171,0 C 17.527,15.148, 16.852,14.473, 16,14.171z"></path></g></svg>