<!-- Generated by IcoMoon.io -->
<svg version="1.1" xmlns="http://www.w3.org/2000/svg" width="32" height="32" viewBox="0 0 32 32">
<title>point-number-range-rating</title>
<path d="M26 20l-2 2-4-10-4 12-6-22-4 20h-6v2h7.638l2.663-13.3 5.506 20.2 4.362-13.087 1.975 4.931 1.125 2.813 3.563-3.556h5.169v-2z"></path>
<path d="M18 0h2v8h-2v-8z"></path>
<path d="M18 8h14v2h-14v-2z"></path>
<path d="M32 0.031c0 1.325 0 2.644 0 3.969-1.994-0.081-5.475 0.081-9.063 2-1.175 0.625-2.144 1.331-2.938 2-0.669-0.938-1.331-1.875-2-2.813 0.725-0.588 1.731-1.35 3-2.125 1.238-0.756 2.819-1.725 5-2.375 1.3-0.388 3.363-0.831 6-0.656z"></path>
</svg>
