<?xml version="1.0" encoding="utf-8"?> <!-- Generator: IcoMoon.io --> <!DOCTYPE svg PUBLIC "-//W3C//DTD SVG 1.1//EN" "http://www.w3.org/Graphics/SVG/1.1/DTD/svg11.dtd"> <svg version="1.1" id="Layer_1" xmlns="http://www.w3.org/2000/svg" xmlns:xlink="http://www.w3.org/1999/xlink" x="0px" y="0px" width="32.019561767578125" height="32" viewBox="0 0 32.019561767578125 32" enable-background="new 0 0 512 512" xml:space="preserve" fill="#000000"> <g><path d="M 32.020,7L 26.003,0.012L 26.003,4.671L 26,4.671L 26,9.329L 26.003,9.329L 26.003,13.988 zM 17.98,4L 26,4L 26,10L 17.98,10zM 29.75,14.259l-1.786,1.778C 27.987,16.355, 28,16.676, 28,17c0,7.18-5.82,13-13,13S 2,24.18, 2,17 S 7.82,4, 15,4c 0.336,0, 0.67,0.013, 1,0.038L16,2.033 C 15.669,2.011, 15.336,2, 15,2C 6.716,2,0,8.716,0,17 c0,8.284, 6.716,15, 15,15c 8.284,0, 15-6.716, 15-15C 30,16.064, 29.914,15.148, 29.75,14.259zM 16,14.171L16,6.004 L16,6 l-2,0 l0,8.171 c-1.165,0.412-2,1.522-2,2.829c0,1.657, 1.343,3, 3,3 c 1.306,0, 2.417-0.835, 2.829-2L24,18 l0,-2 l-6.171,0 C 17.527,15.148, 16.852,14.473, 16,14.171z"></path><g> </g></g></svg>