<?xml version="1.0" encoding="utf-8"?> <!-- Generator: IcoMoon.io --> <!DOCTYPE svg PUBLIC "-//W3C//DTD SVG 1.1//EN" "http://www.w3.org/Graphics/SVG/1.1/DTD/svg11.dtd"> <svg version="1.1" id="Layer_1" xmlns="http://www.w3.org/2000/svg" xmlns:xlink="http://www.w3.org/1999/xlink" x="0px" y="0px" width="32.0078125" height="32" viewBox="0 0 32.0078125 32" enable-background="new 0 0 512 512" xml:space="preserve" fill="#000000"> <g><g> </g><path d="M0,22L 5.969,22L 5.969,24L0,24zM 3.996,5.969L 5.969,5.969L 5.969,22L 3.996,22zM 5.906,5.969L 14.031,5.969L 14.031,7.969L 5.906,7.969zM 12.031,7.984L 14.031,7.984L 14.031,24.016L 12.031,24.016zM 28.031,22L 32,22L 32,24L 28.031,24zM 14.031,22L 19.969,22L 19.969,24L 14.031,24zM 17.969,11.996L 19.969,11.996L 19.969,22L 17.969,22zM 28.031,13.958L 27.989,14L 28.031,14 zM 26.031,16L 28.031,16L 28.031,24L 26.031,24zM 32.008,6.969L 25.991-0.020L 25.991,4.639L 25.988,4.639L 25.988,9.298L 25.991,9.298L 25.991,13.957 zM 15.996,3.969L 25.988,3.969L 25.988,9.969L 15.996,9.969z"></path></g></svg>