<!-- Generated by IcoMoon.io -->
<svg version="1.1" xmlns="http://www.w3.org/2000/svg" width="32" height="32" viewBox="0 0 32 32">
<title>point-time-process</title>
<path d="M29.75 14.256l-1.788 1.775c0.025 0.319 0.038 0.637 0.038 0.962 0 7.181-5.819 13-13 13s-13-5.813-13-12.994 5.819-13 13-13c0.338 0 0.669 0.013 1 0.037v-2.006c-0.331-0.019-0.662-0.031-1-0.031-8.281 0-15 6.719-15 15s6.719 15 15 15c8.281 0 15-6.719 15-15 0-0.938-0.087-1.85-0.25-2.744z"></path>
<path d="M16 14.169v-8.169h-2v8.169c-1.162 0.412-2 1.525-2 2.831 0 1.656 1.344 3 3 3 1.306 0 2.419-0.837 2.831-2h6.169v-2h-6.169c-0.306-0.85-0.981-1.525-1.831-1.831z"></path>
<path d="M18 0h14v4h-14v-4z"></path>
<path d="M18 6h14v4h-14v-4z"></path>
</svg>
