<!-- Generated by IcoMoon.io -->
<svg version="1.1" xmlns="http://www.w3.org/2000/svg" width="32" height="32" viewBox="0 0 32 32">
<title>point-time-process</title>
<path d="M16 6.006v0l-2-0.006v8.169c-1.162 0.412-2 1.525-2 2.831 0 1.656 1.344 3 3 3 1.306 0 2.419-0.837 2.831-2h6.169v-2h-6.169c-0.3-0.85-0.975-1.525-1.831-1.831v-8.162z"></path>
<path d="M18.031 0h14v4h-14v-4z"></path>
<path d="M17.969 6h14v4h-14v-4z"></path>
<path d="M27.969 17c0 7.181-5.819 13-13 13s-13-5.819-13-13 5.819-13 13-13c0.35 0 0.694 0.013 1.031 0.044v-2.006c-0.344-0.025-0.688-0.038-1.031-0.038-8.281 0-15 6.719-15 15s6.719 15 15 15c8.281 0 15-6.719 15-15 0-1.756-0.3-3.438-0.856-5h-2.144c0.644 1.537 1 3.225 1 5z"></path>
<path d="M13.969 6v8.169c-1.162 0.412-2 1.525-2 2.831 0 1.656 1.344 3 3 3 1.306 0 2.419-0.837 2.831-2h6.169v-2h-6.169c-0.3-0.85-0.975-1.525-1.831-1.831v-8.169h-2z"></path>
</svg>
