<?xml version="1.0" encoding="utf-8"?> <!-- Generator: IcoMoon.io --> <!DOCTYPE svg PUBLIC "-//W3C//DTD SVG 1.1//EN" "http://www.w3.org/Graphics/SVG/1.1/DTD/svg11.dtd"> <svg version="1.1" id="Layer_1" xmlns="http://www.w3.org/2000/svg" xmlns:xlink="http://www.w3.org/1999/xlink" x="0px" y="0px" width="32.078125" height="32" viewBox="0 0 32.078125 32" enable-background="new 0 0 512 512" xml:space="preserve" fill="#000000"> <g><g> </g><path d="M 26,20l-2,2l-4-10l-4,12L 10,2L 6,22L0,22 l0,2 l7.64,0 l 2.66-13.3l 3.771,13.826l 1.738,6.373l 4.362-13.087 l 1.972,4.931l 1.127,2.816L 26.828,22L32,22 l0,-2 L26,20 zM 32.078,6.988L 26.061,0L 26.061,4.659L 26.059,4.659L 26.059,9.318L 26.061,9.318L 26.061,13.977 zM 16,3.988L 26.059,3.988L 26.059,9.988L 16,9.988z"></path></g></svg>