<!-- Generated by IcoMoon.io -->
<svg version="1.1" xmlns="http://www.w3.org/2000/svg" width="32" height="32" viewBox="0 0 32 32">
<title>point-number-discrete-process</title>
<path d="M0 22h5.969v2h-5.969v-2z"></path>
<path d="M3.994 5.969h1.975v16.031h-1.975v-16.031z"></path>
<path d="M5.906 5.969h8.125v2h-8.125v-2z"></path>
<path d="M12.031 7.987h2v16.031h-2v-16.031z"></path>
<path d="M28.031 22h3.969v2h-3.969v-2z"></path>
<path d="M14.031 22h5.938v2h-5.938v-2z"></path>
<path d="M17.969 11.994h2v10.006h-2v-10.006z"></path>
<path d="M28.031 13.956l-0.044 0.044h0.044z"></path>
<path d="M26.031 12h2v12h-2v-12z"></path>
<path d="M17.994 0h14v4h-14v-4z"></path>
<path d="M17.994 5.969h14v4h-14v-4z"></path>
</svg>
