<!-- Generated by IcoMoon.io -->
<svg version="1.1" xmlns="http://www.w3.org/2000/svg" width="32" height="32" viewBox="0 0 32 32">
<title>report</title>
<path d="M22 8h7.254c-0.157-0.252-0.345-0.531-0.572-0.841-0.694-0.947-1.662-2.053-2.724-3.116s-2.169-2.030-3.116-2.724c-0.31-0.227-0.589-0.416-0.841-0.572v7.254z"></path>
<path d="M21 10c-0.552 0-1-0.448-1-1v-9h-15.5c-1.378 0-2.5 1.121-2.5 2.5v27c0 1.378 1.121 2.5 2.5 2.5h23c1.378 0 2.5-1.122 2.5-2.5v-19.5h-9zM12 28h-6v-2h6v2zM12 24h-6v-2h6v2zM12 20h-6v-2h6v2zM19 28c-2.762 0-5-2.239-5-5 0-2.419 1.718-4.436 4-4.9v5.9h5.9c-0.463 2.282-2.481 4-4.9 4zM25.9 22h-5.9v-5.9c0.323-0.066 0.658-0.1 1-0.1 2.761 0 5 2.239 5 5 0 0.342-0.035 0.677-0.1 1z"></path>
</svg>
