<?xml version="1.0" encoding="utf-8"?> <!-- Generator: IcoMoon.io --> <!DOCTYPE svg PUBLIC "-//W3C//DTD SVG 1.1//EN" "http://www.w3.org/Graphics/SVG/1.1/DTD/svg11.dtd"> <svg width="32" height="32" viewBox="0 0 32 32" xmlns="http://www.w3.org/2000/svg" xmlns:xlink="http://www.w3.org/1999/xlink" fill="#000000"><g><path d="M 30,0L 16,4L 2,0c0,0-0.141,1.616,0,4l 14,4.378L 30,4C 30.141,1.616, 30,0, 30,0zM 2.256,6.097C 3.006,13.931, 5.803,27.104, 16,32c 10.197-4.896, 12.995-18.069, 13.744-25.903L 16,11.264 L 2.256,6.097z M 15.296,13.137l 0.302,0.113L 5.452,13.25 c-0.040-0.167-0.079-0.334-0.117-0.5l 8.933,0 L 15.296,13.137z M 6.289,9.75 l 1.33,0.5L 4.832,10.25 c-0.029-0.168-0.058-0.335-0.085-0.5L 6.289,9.75 z M 8.948,10.75l 1.33,0.5L 5.018,11.25 c-0.033-0.168-0.064-0.334-0.095-0.5L 8.948,10.75 z M 11.608,11.75l 1.33,0.5L 5.224,12.25 c-0.036-0.168-0.071-0.334-0.105-0.5L 11.608,11.75 z M 27.351,9.133 c-0.477,3.098-1.313,6.776-2.778,10.238C 22.515,24.233, 19.634,27.719, 16,29.748L 16,29.25 l-0.829,0 c-0.249-0.16-0.494-0.326-0.735-0.5L 16,28.75 l0-0.5 l-2.223,0 c-0.202-0.161-0.4-0.328-0.596-0.5L 16,27.75 l0-0.5 l-3.365,0 c-0.17-0.163-0.338-0.329-0.503-0.5 L 16,26.75 l0-0.5 l-4.336,0 c-0.147-0.163-0.291-0.33-0.433-0.5L 16,25.75 l0-0.5 l-5.177,0 c-0.129-0.164-0.256-0.331-0.381-0.5L 16,24.75 l0-0.5 l-5.918,0 c-0.114-0.164-0.227-0.331-0.338-0.5L 16,23.75 l0-0.5 L 9.423,23.25 c-0.103-0.165-0.204-0.331-0.304-0.5L 16,22.75 l0-0.5 L 8.832,22.25 c-0.092-0.165-0.183-0.331-0.273-0.5L 16,21.75 l0-0.5 L 8.299,21.25 c-0.084-0.165-0.166-0.331-0.248-0.5L 16,20.75 l0-0.5 L 7.815,20.25 c-0.076-0.165-0.15-0.332-0.224-0.5L 16,19.75 l0-0.5 L 7.376,19.25 c-0.070-0.166-0.138-0.333-0.205-0.5L 16,18.75 l0-0.5 L 6.977,18.25 c-0.063-0.166-0.126-0.333-0.187-0.5L 16,17.75 l0-0.5 L 6.613,17.25 c-0.058-0.167-0.115-0.333-0.17-0.5L 16,16.75 l0-0.5 L 6.281,16.25 c-0.053-0.167-0.105-0.333-0.155-0.5L 16,15.75 l0-0.5 L 5.978,15.25 c-0.048-0.167-0.096-0.334-0.141-0.5L 16,14.75 l0-0.5 L 5.702,14.25 c-0.044-0.167-0.087-0.334-0.129-0.5 L 16,13.75 l0-0.349 l 0.704-0.265L 27.351,9.133z"></path></g></svg>