<?xml version="1.0" encoding="utf-8"?> <!-- Generator: IcoMoon.io --> <!DOCTYPE svg PUBLIC "-//W3C//DTD SVG 1.1//EN" "http://www.w3.org/Graphics/SVG/1.1/DTD/svg11.dtd"> <svg width="32" height="32" viewBox="0 0 32 32" xmlns="http://www.w3.org/2000/svg" xmlns:xlink="http://www.w3.org/1999/xlink" fill="#000000"><g><path d="M0,2l0,20 l 32,0 L 32,2 L0,2 z M 30,20L 2,20 L 2,4 l 28,0 L 30,20 zM 21,24L 11,24L 10,28L 8,30L 24,30L 22,28 zM 3,14.25L 29,14.25L 29,14.75L 3,14.75zM 3,13.25L 29,13.25L 29,13.75L 3,13.75zM 3,15.25L 29,15.25L 29,15.75L 3,15.75zM 3,12.25L 29,12.25L 29,12.75L 3,12.75zM 3,16.25L 29,16.25L 29,16.75L 3,16.75zM 3,18.25L 29,18.25L 29,18.75L 3,18.75zM 3,17.25L 29,17.25L 29,17.75L 3,17.75zM 3,6.25L 29,6.25L 29,6.75L 3,6.75zM 3,11.25L 29,11.25L 29,11.75L 3,11.75zM 3,7.25L 29,7.25L 29,7.75L 3,7.75zM 3,5.25L 29,5.25L 29,5.75L 3,5.75zM 3,10.25L 29,10.25L 29,10.75L 3,10.75zM 3,9.25L 29,9.25L 29,9.75L 3,9.75zM 3,8.25L 29,8.25L 29,8.75L 3,8.75z"></path></g></svg>