<!-- Generated by IcoMoon.io -->
<svg version="1.1" xmlns="http://www.w3.org/2000/svg" width="32" height="32" viewBox="0 0 32 32">
<title>selection</title>
<path d="M0.096 21.75h5.904v-0.5h-5.989c0.014 0.171 0.042 0.338 0.084 0.5z"></path>
<path d="M0.568 22.75h5.432v-0.5h-5.725c0.082 0.177 0.18 0.344 0.293 0.5z"></path>
<path d="M1.806 23.75h4.194v-0.5h-4.978c0.232 0.205 0.496 0.374 0.784 0.5z"></path>
<path d="M26.194 0.25h-24.388c-0.287 0.126-0.551 0.295-0.784 0.5h25.956c-0.233-0.205-0.496-0.374-0.784-0.5z"></path>
<path d="M27.432 1.25h-26.864c-0.113 0.156-0.211 0.324-0.293 0.5h27.449c-0.082-0.176-0.18-0.344-0.293-0.5z"></path>
<path d="M27.904 2.25h-27.809c-0.042 0.162-0.070 0.329-0.084 0.5h27.977c-0.014-0.171-0.042-0.338-0.084-0.5z"></path>
<path d="M28 12.75v-0.5h-1l0.667 0.5z"></path>
<path d="M28 11.25h-2.333l0.667 0.5h1.667z"></path>
<path d="M30.239 19.179l-20.239-15.179v25.298l6.317-5.957 4.321 8.658 5.367-2.683-4.32-8.658z"></path>
<path d="M3.75 3.75h20.5v6.5l0.125 0.031 0.625 0.469h3v-0.5h-0.25v-6.5h0.25v-0.5h-28v0.5h0.25v16.5h-0.25v0.5h6v-0.5h-2.25v-16.5zM3.25 20.25h-0.5v-16.5h0.5v16.5zM2.25 20.25h-0.5v-16.5h0.5v16.5zM24.75 10.25v-6.5h0.5v6.5h-0.5zM25.75 3.75h0.5v6.5h-0.5v-6.5zM27.25 10.25h-0.5v-6.5h0.5v6.5zM0.75 3.75h0.5v16.5h-0.5v-16.5z"></path>
</svg>
