<?xml version="1.0" encoding="utf-8"?> <!-- Generator: IcoMoon.io --> <!DOCTYPE svg PUBLIC "-//W3C//DTD SVG 1.1//EN" "http://www.w3.org/Graphics/SVG/1.1/DTD/svg11.dtd"> <svg width="32" height="32" viewBox="0 0 32 32" xmlns="http://www.w3.org/2000/svg" xmlns:xlink="http://www.w3.org/1999/xlink" fill="#000000"><g><path d="M 14,24.828L 7.586,17.414L 9.414,15.586L 14,19.172L 22.586,11.586L 24.414,13.414 zM 25.993,4c 0.002,0.002, 0.005,0.005, 0.007,0.007l0,23.986 c-0.002,0.002-0.005,0.005-0.007,0.007L 6.007,28 c-0.003-0.002-0.005-0.005-0.007-0.007L 6,4.007 c 0.002-0.003, 0.005-0.005, 0.007-0.007L 2,4 l0,24 c0,2.2, 1.8,4, 4,4l 20,0 c 2.2,0, 4-1.8, 4-4L 30,4 L 25.993,4 z M 20,4L 20,2 c0-1.105-0.895-2-2-2l-4,0 c-1.105,0-2,0.895-2,2l0,2 l-4,0 l0,4 l 16,0 L 24,4 L 20,4 z M 18,4l-4,0 L 14,2 l 4,0 L 18,4 z"></path></g></svg>