<?xml version="1.0" encoding="utf-8"?> <!-- Generator: IcoMoon.io --> <!DOCTYPE svg PUBLIC "-//W3C//DTD SVG 1.1//EN" "http://www.w3.org/Graphics/SVG/1.1/DTD/svg11.dtd"> <svg width="32" height="32" viewBox="0 0 32 32" xmlns="http://www.w3.org/2000/svg" xmlns:xlink="http://www.w3.org/1999/xlink" fill="#000000"><g><path d="M 30,18l-8,0 l0,6 q0,0.813 -0.594,1.406t-1.422,0.594t-1.406-0.594t-0.578-1.406l0-16 q0-0.813 0.578-1.406t 1.406-0.594t 1.422,0.594t 0.594,1.406l0,6 l 8,0 q 0.813,0 1.406,0.578t 0.594,1.406t-0.594,1.422t-1.406,0.594zM 11.984,26q-0.828,0 -1.406-0.594t-0.578-1.406l0-6 l-8,0 q-0.844,0 -1.422-0.594t-0.578-1.422t 0.578-1.406t 1.422-0.578l 8,0 l0-6 q0-0.813 0.578-1.406t 1.406-0.594t 1.422,0.594t 0.594,1.406l0,16 q0,0.813 -0.594,1.406t-1.422,0.594z"></path></g></svg>