<?xml version="1.0" encoding="utf-8"?> <!-- Generator: IcoMoon.io --> <!DOCTYPE svg PUBLIC "-//W3C//DTD SVG 1.1//EN" "http://www.w3.org/Graphics/SVG/1.1/DTD/svg11.dtd"> <svg width="32" height="32" viewBox="0 0 32 32" xmlns="http://www.w3.org/2000/svg" xmlns:xlink="http://www.w3.org/1999/xlink" fill="#000000"><g><path d="M 32,8L 24,0l0,6 c-4.087,0-7.211,0.975-9.552,2.982c-0.164,0.141-0.321,0.284-0.474,0.43 c 0.86,1.193, 1.522,2.422, 2.118,3.597C 17.603,11.183, 19.782,10, 24,10l0,6 l0,0 l0,6 c-6.764,0-8.285-3.042-10.211-6.894 c-1.072-2.144-2.181-4.361-4.237-6.124C 7.211,6.975, 4.087,6,0,6l0,4 c 6.764,0, 8.285,3.042, 10.211,6.894 c 1.072,2.144, 2.181,4.361, 4.237,6.124C 16.789,25.025, 19.913,26, 24,26l0,6 l 8-8L 24,16L 32,8zM0,22l0,4 c 4.087,0, 7.211-0.975, 9.552-2.982c 0.164-0.141, 0.321-0.284, 0.474-0.43 c-0.86-1.193-1.522-2.422-2.118-3.597C 6.397,20.817, 4.218,22,0,22z"></path></g></svg>