<?xml version="1.0" encoding="utf-8"?> <!-- Generator: IcoMoon.io --> <!DOCTYPE svg PUBLIC "-//W3C//DTD SVG 1.1//EN" "http://www.w3.org/Graphics/SVG/1.1/DTD/svg11.dtd"> <svg width="32" height="32" viewBox="0 0 32 32" xmlns="http://www.w3.org/2000/svg" xmlns:xlink="http://www.w3.org/1999/xlink" fill="#000000"><g><path d="M 16,0C 7.163,0,0,2.239,0,5l0,4 c0,2.761, 7.163,5, 16,5c 8.837,0, 16-2.239, 16-5L 32,5 C 32,2.239, 24.837,0, 16,0 zM 15.95,16C 8.785,16, 2.746,14.529, 0.708,12.5C 0.232,12.974,0,13.477,0,14l0,4 c0,2.761, 7.163,5, 16,5 c 8.837,0, 16-2.239, 16-5l0-4 c0-0.523-0.282-1.026-0.758-1.5C 29.203,14.529, 23.114,16, 15.95,16zM 15.95,25C 8.785,25, 2.746,23.529, 0.708,21.5C 0.232,21.974,0,22.477,0,23l0,4 c0,2.761, 7.163,5, 16,5 c 8.837,0, 16-2.239, 16-5l0-4 c0-0.523-0.282-1.026-0.758-1.5C 29.203,23.529, 23.114,25, 15.95,25z"></path></g></svg>