<?xml version="1.0" encoding="utf-8"?> <!-- Generator: IcoMoon.io --> <!DOCTYPE svg PUBLIC "-//W3C//DTD SVG 1.1//EN" "http://www.w3.org/Graphics/SVG/1.1/DTD/svg11.dtd"> <svg width="32" height="32" viewBox="0 0 32 32" xmlns="http://www.w3.org/2000/svg" xmlns:xlink="http://www.w3.org/1999/xlink" fill="#000000"><g><path d="M 16,7C 8,7, 0,14,0,16l0,0c 0,2, 8,9, 16,9s 16-7, 16-9l0,0 C 32,14, 24,7, 16,7z M 16,22c-3.314,0-6-2.686-6-6c0-3.314, 2.686-6, 6-6c 3.314,0, 6,2.686, 6,6 C 22,19.314, 19.314,22, 16,22zM 12,16A4,4 7200 1 1 20,16A4,4 7200 1 1 12,16z"></path></g></svg>