<?xml version="1.0" encoding="utf-8"?> <!-- Generator: IcoMoon.io --> <!DOCTYPE svg PUBLIC "-//W3C//DTD SVG 1.1//EN" "http://www.w3.org/Graphics/SVG/1.1/DTD/svg11.dtd"> <svg width="32" height="32" viewBox="0 0 32 32" xmlns="http://www.w3.org/2000/svg" xmlns:xlink="http://www.w3.org/1999/xlink" fill="#000000"><g><path d="M 16,0C 7.163,0,0,7.163,0,16s 7.163,16, 16,16s 16-7.163, 16-16S 24.837,0, 16,0z M 8,8l 16,0 c 0.286,0, 0.563,0.061, 0.817,0.177L 16,18.463L 7.183,8.177C 7.437,8.061, 7.714,8, 8,8z M 6,22L 6,10 c0-0.042, 0.002-0.084, 0.004-0.125l 5.864,6.842L 6.069,22.517C 6.024,22.35, 6,22.177, 6,22z M 24,24L 8,24 c-0.177,0-0.35-0.024-0.517-0.069l 5.691-5.691L 16,21.537l 2.826-3.297l 5.691,5.691C 24.35,23.976, 24.177,24, 24,24z M 26,22c0,0.177-0.024,0.35-0.069,0.517l-5.8-5.8L 25.996,9.875c 0.003,0.042, 0.004,0.083, 0.004,0.125L 26,22 z"></path></g></svg>