<?xml version="1.0" encoding="utf-8"?>
<!-- Generator: Adobe Illustrator 21.0.2, SVG Export Plug-In . SVG Version: 6.00 Build 0)  -->
<svg version="1.1" id="Layer_1" xmlns="http://www.w3.org/2000/svg" xmlns:xlink="http://www.w3.org/1999/xlink" x="0px" y="0px"
	 viewBox="0 0 512 512" style="enable-background:new 0 0 512 512;" xml:space="preserve">
<title></title>
<g id="icomoon-ignore">
</g>
<path d="M448,177.9c-1.5-1.5-2.9-3-4.1-4.3L338.4,68.2c-1.4-1.3-2.9-2.7-4.4-4.2L279.9,9.8c-13.1-13.1-34.6-13.1-47.7,0L178,64
	c0,0,0,0,0,0c-41.8,41.8-38.5-11.6-66.3-42.7c-0.1-0.2-0.3-0.3-0.4-0.5c-0.7-0.7-1.3-1.4-2-2.1c-25-25-65.5-25-90.5,0
	c-25,25-25,65.5,0,90.5c0.7,0.7,1.4,1.4,2.1,2c0.2,0.1,0.3,0.3,0.5,0.4c31,27.8,84.5,24.5,42.7,66.3c0,0,0,0,0,0L9.8,232.1
	c-13.1,13.1-13.1,34.6,0,47.7L64,334c0,0,0,0,0,0c41.8,41.8-11.6,38.5-42.7,66.3c-0.2,0.1-0.3,0.3-0.5,0.4c-0.7,0.7-1.4,1.3-2.1,2
	c-25,25-25,65.5,0,90.5c25,25,65.5,25,90.5,0c0.7-0.7,1.4-1.4,2-2.1c0.1-0.2,0.3-0.3,0.4-0.5c27.8-31,24.5-84.5,66.3-42.7l54.2,54.2
	c13.1,13.1,34.6,13.1,47.7,0l62.9-62.9c25.1-32.2-22.4-31.5-51-57c-0.2-0.1-0.3-0.3-0.5-0.4c-0.7-0.7-1.4-1.3-2.1-2
	c-25-25-25-65.5,0-90.5c25-25,65.5-25,90.5,0c0.7,0.7,1.4,1.4,2,2.1c0.1,0.2,0.3,0.3,0.4,0.5c25.6,28.5,24.8,76,57,51l62.9-62.9
	c13.1-13.1,13.1-34.6,0-47.7L448,177.9z"/>
</svg>
