<?xml version="1.0" encoding="utf-8"?> <!-- Generator: IcoMoon.io --> <!DOCTYPE svg PUBLIC "-//W3C//DTD SVG 1.1//EN" "http://www.w3.org/Graphics/SVG/1.1/DTD/svg11.dtd"> <svg width="32" height="32" viewBox="0 0 32 32" xmlns="http://www.w3.org/2000/svg" xmlns:xlink="http://www.w3.org/1999/xlink" fill="#000000"><g><path d="M 2.704,17.708l 11.235,5.668l 2.006-5.668L 4.711,12.341L 2.704,17.708z M 16.197,17.708l 1.906,5.618l 11.636-5.668l-2.257-5.317L 16.197,17.708z M 0.856,7.809l 3.863,4.514L 15.953,6.606l-3.661-4.665 L 0.856,7.809z M 31.144,7.909L 19.958,1.94l-3.812,4.665l 11.336,5.717L 31.144,7.909z M 4.046,19.125l-0.038,5.442l 11.85,5.493 L 15.857,19.826 l-1.693,4.414L 4.046,19.125z M 16.271,19.826l0,10.233 l 11.813-5.493l0-5.405 l-10.244,5.089L 16.271,19.826z"></path></g></svg>