<?xml version="1.0" encoding="utf-8"?>
<!-- Generator: Adobe Illustrator 16.0.0, SVG Export Plug-In . SVG Version: 6.00 Build 0)  -->
<!DOCTYPE svg PUBLIC "-//W3C//DTD SVG 1.1//EN" "http://www.w3.org/Graphics/SVG/1.1/DTD/svg11.dtd">
<svg version="1.1" id="Layer_1" xmlns="http://www.w3.org/2000/svg" xmlns:xlink="http://www.w3.org/1999/xlink" x="0px" y="0px"
	 width="337.667px" height="100px" viewBox="0 0 337.667 100" enable-background="new 0 0 337.667 100" xml:space="preserve">
<linearGradient id="SVGID_1_" gradientUnits="userSpaceOnUse" x1="41.4922" y1="83.1172" x2="41.4922" y2="1.5386">
	<stop  offset="0" style="stop-color:#05003B"/>
	<stop  offset="0.1346" style="stop-color:#0F104F"/>
	<stop  offset="0.4093" style="stop-color:#273A81"/>
	<stop  offset="0.796" style="stop-color:#4F7DD2"/>
	<stop  offset="1" style="stop-color:#65A2FF"/>
</linearGradient>
<circle fill="url(#SVGID_1_)" cx="41.492" cy="42.328" r="40.79"/>
<g>
	<path fill="#FFFFFF" d="M43.542,27.137l0.098,0.015L9.765,16.153C3.823,23.24,0.24,32.371,0.24,42.343
		c0,0.5,0.02,0.997,0.038,1.492l14.818,1.719L1.487,52.375c0.344,1.363,0.755,2.699,1.232,4.003l20.435-6.899L6.086,63.391
		c0.729,1.208,1.52,2.374,2.367,3.498l22.449-14.312L13.135,72.089c1.176,1.104,2.415,2.142,3.715,3.101
		c9.506-11.368,18.98-21.849,28.064-24.115c7.144-1.783,14.175,2.328,18.215,7.895l0.163-0.783
		C66.234,44.156,57.42,30.402,43.542,27.137z"/>
	<polygon fill="#414141" points="48.705,33.381 26.737,28.084 48.056,39.435 	"/>
</g>
<path fill="#414141" d="M112.093,53.793c-1.878,0.867-4.816,1.589-8.429,1.589c-7.996,0-12.62-5.345-12.62-13.438
	c0-7.898,4.431-14.208,11.945-14.208c7.465,0,10.452,6.213,10.452,12.764c0,0.915-0.048,1.686-0.145,2.36H96.439
	c0.145,5.972,3.853,8.236,8.043,8.236c2.938,0,4.961-0.53,6.695-1.253L112.093,53.793z M108.144,38.862
	c0.048-3.179-1.252-7.129-5.539-7.129c-4.095,0-5.828,4.046-6.118,7.129H108.144z"/>
<path fill="#414141" d="M137.426,48.544c0,2.264,0.048,4.576,0.386,6.309h-5.058l-0.385-3.082h-0.145
	c-1.493,2.071-4.094,3.611-7.417,3.611c-4.961,0-7.804-3.659-7.804-7.753c0-6.599,5.732-9.875,14.835-9.875
	c0-1.975,0-5.924-5.347-5.924c-2.36,0-4.768,0.723-6.454,1.831l-1.156-3.709c1.878-1.204,5.009-2.215,8.573-2.215
	c7.803,0,9.97,5.153,9.97,10.789V48.544z M131.984,41.512c-4.383,0-9.44,0.818-9.44,5.539c0,2.938,1.83,4.239,3.901,4.239
	c3.035,0,5.54-2.313,5.54-5.396V41.512z"/>
<path fill="#414141" d="M166.613,28.314c-0.145,1.878-0.241,4.094-0.241,7.658v15.125c0,5.298-0.433,15.075-13.004,15.075
	c-3.083,0-6.31-0.674-8.381-1.927l1.253-4.335c1.637,0.963,4.19,1.878,7.176,1.878c4.335,0,7.417-2.407,7.417-8.427v-2.554h-0.096
	c-1.349,2.264-3.949,3.901-7.37,3.901c-6.261,0-10.548-5.54-10.548-12.956c0-9.007,5.443-14.017,11.223-14.017
	c3.95,0,6.165,2.022,7.273,4.142h0.096l0.241-3.564H166.613z M160.785,38.573c0-3.516-2.312-6.406-5.731-6.406
	c-3.854,0-6.55,3.661-6.55,9.344c0,5.202,2.36,8.909,6.502,8.909c2.89,0,5.78-2.215,5.78-6.646V38.573z"/>
<path fill="#414141" d="M179.085,54.853h-5.587V16.225h5.587V54.853z"/>
<path fill="#414141" d="M205.624,53.793c-1.878,0.867-4.817,1.589-8.429,1.589c-7.995,0-12.619-5.345-12.619-13.438
	c0-7.898,4.432-14.208,11.945-14.208c7.465,0,10.451,6.213,10.451,12.764c0,0.915-0.047,1.686-0.144,2.36H189.97
	c0.145,5.972,3.853,8.236,8.044,8.236c2.938,0,4.96-0.53,6.695-1.253L205.624,53.793z M201.674,38.862
	c0.048-3.179-1.252-7.129-5.539-7.129c-4.094,0-5.827,4.046-6.117,7.129H201.674z"/>
<path fill="#414141" d="M211.594,51.578c0-2.216,1.542-3.854,3.612-3.854c2.119,0,3.564,1.589,3.564,3.854
	c0,2.215-1.396,3.804-3.611,3.804C212.943,55.382,211.594,53.697,211.594,51.578z"/>
<rect x="224.165" y="28.266" fill="#414141" width="5.587" height="26.586"/>
<path fill="#414141" d="M259.806,41.366c0,9.924-6.454,14.016-12.427,14.016c-6.888,0-12.137-5.057-12.137-13.629
	c0-8.959,5.491-14.017,12.522-14.017C255.038,27.736,259.806,33.227,259.806,41.366z M247.572,31.926
	c-4.768,0-6.599,5.105-6.599,9.681c0,5.202,2.457,9.584,6.551,9.584c4.046,0,6.55-4.382,6.55-9.68
	C254.074,37.128,252.244,31.926,247.572,31.926z"/>
<rect x="224.165" y="18.344" fill="#5485DC" width="5.587" height="5.587"/>
</svg>
