<?xml version="1.0" encoding="utf-8"?> <!-- Generator: IcoMoon.io --> <!DOCTYPE svg PUBLIC "-//W3C//DTD SVG 1.1//EN" "http://www.w3.org/Graphics/SVG/1.1/DTD/svg11.dtd"> <svg width="48" height="48" viewBox="0 0 48 48" xmlns="http://www.w3.org/2000/svg" xmlns:xlink="http://www.w3.org/1999/xlink" fill="#000000"><g><path d="M 4.056,26.561l 16.853,8.502l 3.009-8.502L 7.066,18.511L 4.056,26.561z M 24.295,26.561l 2.859,8.427l 17.454-8.502l-3.386-7.975L 24.295,26.561z M 1.285,11.713l 5.794,6.771L 23.93,9.908l-5.492-6.998 L 1.285,11.713z M 46.715,11.863L 29.936,2.911l-5.718,6.998l 17.004,8.576L 46.715,11.863z M 6.069,28.688l-0.057,8.164l 17.774,8.239 L 23.786,29.739 l-2.539,6.622L 6.069,28.688z M 24.407,29.739l0,15.35 l 17.72-8.239l0-8.108 l-15.365,7.634L 24.407,29.739z"></path></g></svg>